<svg width="112" height="112" viewBox="0 0 112 112" fill="none" xmlns="http://www.w3.org/2000/svg">
<path d="M77.9566 58.4171L94.1504 74.6109C94.8038 75.264 94.8038 76.3169 94.1504 76.9834C88.3526 82.7678 82.5684 88.5656 76.7706 94.35C76.1178 95.0031 75.051 95.0031 74.3981 94.35C69.0001 88.9521 63.6158 83.5542 58.2178 78.1562C56.9115 76.8501 54.779 76.8501 53.4727 78.1562C48.0748 83.5542 42.6769 88.9521 37.2925 94.35C36.6261 95.0031 35.5728 95.0031 34.92 94.35C29.1222 88.5656 23.338 82.7678 17.5402 76.9834C16.8867 76.3169 16.8867 75.264 17.5402 74.6109C22.9382 69.213 28.3361 63.8151 33.734 58.4171C35.0397 57.111 35.0397 54.9918 33.734 53.6856L17.5402 37.4918C16.8867 36.8387 16.8867 35.7725 17.5402 35.1194C23.338 29.3349 29.1222 23.5372 34.92 17.7527C35.5728 17.0996 36.6261 17.0996 37.2925 17.7527C42.6769 23.1506 48.0748 28.5486 53.4727 33.9332C54.779 35.2527 56.9115 35.2527 58.2178 33.9332C63.6158 28.5486 69.0001 23.1506 74.3981 17.7527C75.051 17.0996 76.1178 17.0996 76.7706 17.7527C82.5684 23.5372 88.3526 29.3349 94.1504 35.1194C94.8038 35.7725 94.8038 36.8387 94.1504 37.4918C88.7524 42.8897 83.3545 48.2877 77.9566 53.6856C76.6509 54.9918 76.6509 57.111 77.9566 58.4171ZM55.8453 0.212776C25.004 0.212776 0 25.2165 0 56.0447C0 86.8863 25.004 111.89 55.8453 111.89C86.6866 111.89 111.677 86.8863 111.677 56.0447C111.677 25.2165 86.6866 0.212776 55.8453 0.212776Z" fill="#22C55E"/>
<path d="M77.9567 58.4171C76.6511 57.1109 76.6511 54.9918 77.9567 53.6856C83.3547 48.2877 88.7526 42.8897 94.1505 37.4918C94.804 36.8387 94.804 35.7725 94.1505 35.1194C88.3528 29.3349 82.5686 23.5371 76.7708 17.7527C76.118 17.0996 75.0512 17.0996 74.3982 17.7527C69.0003 23.1506 63.616 28.5485 58.218 33.9332C56.9117 35.2526 54.7792 35.2526 53.4729 33.9332C48.075 28.5485 42.677 23.1506 37.2927 17.7527C36.6263 17.0996 35.573 17.0996 34.9202 17.7527C29.1224 23.5371 23.3382 29.3349 17.5404 35.1194C16.8869 35.7725 16.8869 36.8387 17.5404 37.4918L33.7342 53.6856C35.0398 54.9918 35.0398 57.1109 33.7342 58.4171C28.3363 63.815 22.9383 69.213 17.5404 74.6109C16.8869 75.264 16.8869 76.3169 17.5404 76.9833C23.3382 82.7678 29.1224 88.5656 34.9202 94.35C35.573 95.0031 36.6263 95.0031 37.2927 94.35C42.677 88.9521 48.075 83.5542 53.4729 78.1562C54.7792 76.8501 56.9117 76.8501 58.218 78.1562C63.616 83.5542 69.0003 88.9521 74.3982 94.35C75.0512 95.0031 76.118 95.0031 76.7708 94.35C82.5686 88.5656 88.3528 82.7678 94.1505 76.9833C94.804 76.3169 94.804 75.264 94.1505 74.6109L77.9567 58.4171Z" fill="#14532D"/>
<path d="M81.5157 81.7148C75.571 87.6592 65.5612 82.128 67.4143 73.9445C68.454 69.3462 66.108 65.521 62.5624 69.0797C60.71 70.9323 58.8706 72.7583 57.0312 74.6109C56.3784 75.264 55.3121 75.264 54.6593 74.6109C52.8198 72.7583 50.9804 70.9323 49.1281 69.0797C45.5689 65.521 43.2365 69.3462 44.2762 73.9445C46.1292 82.128 36.1194 87.6592 30.1748 81.7148C24.2437 75.7704 29.762 65.7609 37.9589 67.6269C42.5435 68.6665 46.3557 66.3207 42.8237 62.7754C40.9842 60.9228 39.1319 59.0835 37.2925 57.2309C36.626 56.5778 36.626 55.5249 37.2925 54.8718C39.1319 53.0192 40.9707 51.1799 42.8101 49.3406C46.3686 45.7819 42.5435 43.4362 37.9589 44.4758C29.762 46.3284 24.2437 36.3189 30.1748 30.3878C36.1194 24.4434 46.1292 29.9746 44.2762 38.1582C43.2365 42.7431 45.5689 46.5816 49.1281 43.023C50.9804 41.1703 52.8199 39.331 54.6722 37.4918C55.3257 36.8387 56.3784 36.8387 57.0312 37.4918C58.8706 39.3444 60.71 41.1703 62.5624 43.023C66.108 46.5816 68.454 42.7431 67.4143 38.1582C65.5612 29.9746 75.571 24.4434 81.5157 30.3878C87.4467 36.3189 81.9284 46.3284 73.7316 44.4758C69.1469 43.4362 65.3219 45.7819 68.8804 49.3406C70.7198 51.1932 72.5586 53.0192 74.398 54.8718C75.0509 55.5249 75.0509 56.5778 74.398 57.2309C72.5586 59.0835 70.7198 60.9095 68.8804 62.7621C65.3219 66.3207 69.1469 68.6665 73.7316 67.6269C81.9284 65.7609 87.4467 75.7704 81.5157 81.7148Z" fill="#F0FDF4"/>
</svg>
