<svg id="Layer_5" enable-background="new 0 0 64 64" height="512" viewBox="0 0 64 64" width="512" xmlns="http://www.w3.org/2000/svg"><g><path d="m17.172 26.146 1.414 1.414c.756-.756 2.072-.756 2.828 0l1.414-1.414c-1.511-1.511-4.145-1.511-5.656 0z"/><path d="m14.343 23.318 1.414 1.414c1.133-1.134 2.64-1.758 4.243-1.758s3.109.624 4.243 1.758l1.414-1.414c-1.511-1.512-3.52-2.344-5.657-2.344s-4.146.833-5.657 2.344z"/><path d="m11.515 20.489 1.414 1.414c3.899-3.898 10.243-3.898 14.143 0l1.414-1.414c-4.679-4.677-12.293-4.677-16.971 0z"/><path d="m58 9h-52c-2.757 0-5 2.243-5 5v36c0 2.757 2.243 5 5 5h52c2.757 0 5-2.243 5-5v-36c0-2.757-2.243-5-5-5zm3 41c0 1.654-1.346 3-3 3h-52c-1.654 0-3-1.346-3-3v-36c0-1.654 1.346-3 3-3h52c1.654 0 3 1.346 3 3z"/><path d="m13 35c-4.411 0-8 3.589-8 8s3.589 8 8 8 8-3.589 8-8-3.589-8-8-8zm5.91 7h-2.052c-.364-1.399-1.459-2.494-2.858-2.858v-2.052c2.507.424 4.486 2.403 4.91 4.91zm-5.91 3c-1.103 0-2-.897-2-2s.897-2 2-2 2 .897 2 2-.897 2-2 2zm-1-7.91v2.052c-1.399.364-2.494 1.459-2.858 2.858h-2.052c.424-2.507 2.403-4.486 4.91-4.91zm-4.91 6.91h2.052c.364 1.399 1.459 2.494 2.858 2.858v2.052c-2.507-.424-4.486-2.403-4.91-4.91zm6.91 4.91v-2.052c1.399-.364 2.494-1.459 2.858-2.858h2.052c-.424 2.507-2.403 4.486-4.91 4.91z"/><path d="m56 45c-1.654 0-3 1.346-3 3s1.346 3 3 3 3-1.346 3-3-1.346-3-3-3zm0 4c-.551 0-1-.448-1-1s.449-1 1-1 1 .448 1 1-.449 1-1 1z"/><path d="m48 45c-1.654 0-3 1.346-3 3s1.346 3 3 3 3-1.346 3-3-1.346-3-3-3zm0 4c-.551 0-1-.448-1-1s.449-1 1-1 1 .448 1 1-.449 1-1 1z"/><path d="m40 45c-1.654 0-3 1.346-3 3s1.346 3 3 3 3-1.346 3-3-1.346-3-3-3zm0 4c-.551 0-1-.448-1-1s.449-1 1-1 1 .448 1 1-.449 1-1 1z"/><path d="m53 43h6v-6h-6zm2-4h2v2h-2z"/><path d="m45 43h6v-6h-6zm2-4h2v2h-2z"/><path d="m37 43h6v-6h-6zm2-4h2v2h-2z"/><path d="m53 35h6v-6h-6zm2-4h2v2h-2z"/><path d="m45 35h6v-6h-6zm2-4h2v2h-2z"/><path d="m37 35h6v-6h-6zm2-4h2v2h-2z"/><path d="m53 27h6v-6h-6zm2-4h2v2h-2z"/><path d="m45 27h6v-6h-6zm2-4h2v2h-2z"/><path d="m37 27h6v-6h-6zm2-4h2v2h-2z"/><path d="m57 13h-18c-1.103 0-2 .897-2 2v2c0 1.103.897 2 2 2h18c1.103 0 2-.897 2-2v-2c0-1.103-.897-2-2-2zm-18 4v-2h18l.001 2z"/><path d="m33 13h-26c-1.103 0-2 .897-2 2v16c0 1.103.897 2 2 2h26c1.103 0 2-.897 2-2v-16c0-1.103-.897-2-2-2zm-26 18v-16h26l.001 16z"/><path d="m33 35h-8c-1.103 0-2 .897-2 2v12c0 1.103.897 2 2 2h8c1.103 0 2-.897 2-2v-12c0-1.103-.897-2-2-2zm-8 14v-12h8l.001 12z"/></g></svg>